<svg width="145" height="20" viewBox="0 0 145 20" fill="none" xmlns="http://www.w3.org/2000/svg">
<g clip-path="url(#clip0_193_13649)">
<path fill-rule="evenodd" clip-rule="evenodd" d="M47.3398 14.6623C47.2579 16.0551 46.8728 16.7641 45.5373 16.7641L45.3324 17.4313H51.5349L51.7233 16.7641C50.4534 16.7641 50.5189 15.7465 50.5763 14.7874L51.5923 0.875159C50.7565 1.22547 49.4046 1.80931 48.3394 1.91774L40.1378 14.4537C39.4823 15.4546 38.6056 16.5556 37.352 16.7641L37.1472 17.4313H41.8748L42.0551 16.7641C40.1296 16.7641 40.9489 15.3462 41.5471 14.387L42.5876 12.7606H47.4546L47.3316 14.6539L47.3398 14.6623ZM48.0117 5.06217L47.5201 11.5846H43.407L47.643 5.14557L48.0117 5.06217ZM65.4228 14.7874C64.9967 16.3471 64.4232 16.8308 62.7845 16.8308L62.5797 17.4313H70.0111L70.216 16.8308C68.5609 16.8725 68.3315 16.272 68.7248 14.7874L71.8137 3.82775C72.2398 2.26805 72.7969 1.78429 74.4356 1.78429L74.5585 1.20044H62.424L62.2192 1.78429C64.1856 1.78429 63.694 3.2439 63.2188 4.51168L59.163 15.1794C58.8598 15.9717 57.8357 16.6557 57.2375 16.5973C56.623 16.5556 56.0495 16.0385 56.0331 15.4129C55.9921 14.5371 56.9508 14.1868 57.3441 14.1868C57.3441 13.4362 56.5247 12.7522 55.6644 12.8106C54.8041 12.869 53.8618 13.7281 53.8618 14.9125C53.8618 16.3888 54.9679 17.7483 56.5657 17.7483C58.1634 17.7483 59.7365 17.1061 60.3347 15.5213L64.4232 4.68684C65.136 2.79351 66.1602 1.93442 67.3073 1.97613C68.3315 1.99281 68.7166 3.06041 68.4708 3.97788L65.4228 14.7874ZM89.4706 5.7878H89.9212L91.1503 1.20879H77.7048L76.2709 5.7878H76.8035C77.7212 3.82775 80.4906 1.97613 82.6127 1.9094L78.8683 14.779C78.4012 16.4638 77.6638 16.7558 75.9432 16.7558L75.8203 17.423H83.9072L84.0301 16.7558C82.3751 16.7558 81.736 16.4889 82.2276 14.779L85.9146 1.9094C88.0449 1.9094 89.4788 3.70264 89.4788 5.7878H89.4706ZM99.5813 3.82775C99.9664 2.43486 100.524 1.78429 102.056 1.78429L102.236 1.20044H94.952L94.7308 1.78429C96.3695 1.78429 96.6563 2.30141 96.2466 3.82775L93.1986 14.7874C92.666 16.7641 90.4948 16.8308 90.4948 16.8308L90.3719 17.4313H97.6559L97.8443 16.8308C96.517 16.8308 95.9598 16.3137 96.435 14.9125L104.637 5.5209L102.056 14.7874C101.671 16.1803 101.056 16.8308 99.5158 16.8308L99.3929 17.4313H106.701L106.841 16.8308C105.268 16.8308 104.915 16.3304 105.325 14.7874L108.438 3.82775C108.848 2.35145 109.438 1.78429 111.077 1.78429L111.282 1.20044H103.973L103.793 1.78429C104.94 1.78429 105.366 1.99281 105.268 3.09377V3.4274L97.0823 12.6105L99.5813 3.81941V3.82775ZM119.123 3.82775C119.508 2.47656 119.778 1.85102 121.31 1.78429L121.433 1.20044H114.477L114.272 1.78429C115.911 1.78429 116.198 2.218 115.747 3.82775L112.658 14.7874C112.273 16.247 111.577 16.8308 110.02 16.8308L109.88 17.4313H117.205L117.386 16.8308C115.788 16.8308 115.649 16.1469 116.017 14.7874L117.246 10.5336L118.557 9.39096L121.425 14.9125C121.835 15.7048 121.302 16.7641 120.344 16.7641L120.139 17.3479H126.874L127.054 16.7641C125.825 16.639 125.481 15.7882 124.989 14.7874L121.204 7.13899L125.276 3.55251C126.235 2.71844 127.095 1.84267 128.447 1.78429L128.627 1.20044H123.408L123.228 1.78429C125.21 1.78429 123.965 3.41072 123.269 3.99456L117.787 8.53188L119.139 3.82775H119.123ZM138.73 14.6623C138.648 16.0385 138.238 16.7641 136.927 16.7641L136.739 17.4313H142.941L143.121 16.7641C141.794 16.7641 141.917 15.7632 141.974 14.7874L142.998 0.875159C142.081 1.29219 140.811 1.80931 139.762 1.91774L131.519 14.4537C130.864 15.4546 130.004 16.5556 128.758 16.7641L128.578 17.4313H133.265L133.469 16.7641C131.487 16.7641 132.363 15.3462 132.961 14.387L134.002 12.7606H138.869L138.73 14.6539V14.6623ZM139.442 5.06217L138.934 11.5846H134.846L139.057 5.14557L139.442 5.06217ZM29.306 8.81546C30.9202 8.81546 32.395 9.6662 32.395 11.4011C32.395 14.1535 30.1418 16.5222 27.5445 16.5222C27.1184 16.5222 26.807 16.0885 26.9299 15.6464L28.7899 8.81546H29.2979H29.306ZM25.6272 1.20879L25.5043 1.55909C24.0704 2.10123 22.5546 2.53495 21.0634 2.45154C17.827 2.33477 14.7627 0.458127 11.5099 0.49983C8.54383 0.558215 5.08619 2.60167 4.07839 5.7461C5.75805 4.4533 8.3308 3.26893 10.5676 3.18552C13.8204 3.08543 16.8684 4.93706 20.1212 5.02046C22.2105 5.06217 24.9717 3.75268 26.1188 1.85102C27.3888 2.01783 27.2413 2.82687 26.9791 3.82775L23.8902 14.7874C23.4641 16.3471 22.8496 16.8308 21.1699 16.8308L21.0307 17.4313H28.9291C31.9607 17.4313 35.7871 15.513 35.7871 12.1184C35.7871 9.01563 32.4933 7.88965 29.9779 7.88965H29.1422L30.7399 2.10123H31.5756C34.6236 2.10123 36.1804 2.68508 37.0571 5.7044H37.5077L37.0161 1.20879H25.6354H25.6272ZM9.62536 6.83038C12.8782 6.78868 15.9507 8.66533 19.2035 8.79044C21.0225 8.87384 22.8496 8.23161 24.562 7.52266C23.7263 9.77463 20.5718 11.4428 18.2613 11.376C15.0085 11.2926 11.9359 9.44101 8.7077 9.52441C6.4545 9.5828 4.02104 10.7505 2.21848 12.11C3.16073 9.02397 6.5774 6.90545 9.62536 6.83872V6.83038ZM7.76545 13.186C11.0019 13.1443 14.0662 15.0209 17.319 15.146C19.138 15.2294 20.9651 14.5872 22.7021 13.8782C21.8418 16.1302 18.7119 17.7983 16.3768 17.7316C13.1404 17.6482 10.0514 15.7716 6.8232 15.88C4.55361 15.9634 2.13654 17.1061 0.333984 18.4656C1.29262 15.3795 4.6929 13.261 7.76545 13.1943V13.186Z" fill="black"/>
<path fill-rule="evenodd" clip-rule="evenodd" d="M38.4741 18.5158L37.9416 17.9736H42.6692L43.2018 18.5158H38.4741ZM143.801 1.43412L144.334 1.95124L143.416 14.8459C143.4 15.3463 143.375 16.0136 143.678 16.4473C142.965 15.6966 142.736 15.5715 142.818 14.5706L143.801 1.42578V1.43412ZM138.074 18.5158L137.541 17.9736H143.744L144.276 18.5158H138.074ZM137.197 11.0759L136.501 10.8674L138.361 7.97319L138.221 9.53289L137.197 11.0759ZM133.633 16.3639C132.732 15.6549 134.452 13.8617 134.796 13.3195H137.967V13.8367H135.329C134.944 14.4372 133.387 16.0886 134.182 16.9227L133.633 16.3639ZM129.905 18.5074L129.372 17.9653H134.075L134.608 18.5074H129.905ZM121.457 18.4407L120.925 17.8986H127.66L128.192 18.4407H121.457ZM122.441 2.90208C121.4 3.0105 121.007 3.33579 120.597 4.37837L120.212 5.72956L119.335 6.45519L119.925 4.32833C119.925 4.32833 120.31 2.4767 122.113 2.32657L122.441 2.6602L122.662 2.86871C122.58 2.86871 122.498 2.88539 122.441 2.88539V2.90208ZM122.441 7.89813C122.359 7.75633 122.301 7.6062 122.219 7.46441L122.441 7.2559L126.046 3.96134C126.882 3.194 128.07 2.41832 129.241 2.33491L129.774 2.87705C128.651 2.96046 127.521 3.6861 126.701 4.39505L123.014 7.7897L127.045 16.1637C126.578 16.1637 126.251 15.6883 126.087 15.313C124.882 12.8942 123.588 10.2502 122.441 7.89813ZM118.737 11.3345L118.516 11.543L117.394 15.6466C117.336 15.8718 117.336 16.0219 117.336 16.2888C116.804 16.2471 116.623 15.8551 116.705 15.4798L118.016 11.0008L118.385 10.6922L118.754 11.3345H118.737ZM111.207 18.4991L110.675 17.9569H118L118.508 18.4991H111.199H111.207ZM107.234 16.2304L106.578 16.1721C105.923 16.1721 106.414 14.629 106.554 14.1536L109.438 4.13649C109.823 2.7019 110.601 2.34325 112.019 2.34325L112.551 2.88539C111.281 2.88539 110.445 3.05221 110.036 4.40339L107.152 14.4205C107.07 14.7708 106.603 15.9802 107.234 16.2304ZM100.908 4.92051L99.8022 8.52367L98.819 9.58294L100.458 4.12815C100.556 3.71112 100.72 3.36081 100.908 3.11059C101.359 2.51007 102.031 2.34325 103.039 2.34325L103.571 2.88539C102.326 2.88539 101.482 3.05221 101.072 4.40339L100.908 4.92051ZM100.908 12.4188L97.7538 16.0052C97.508 16.0052 96.9754 15.8801 97.2212 15.4631L100.908 11.1927L102.998 8.75721L102.449 10.6922L100.916 12.4188H100.908ZM100.908 18.4991H100.744L100.195 17.9569H107.504L108.037 18.4991H100.916H100.908ZM91.6988 18.4991L91.1663 17.9569H98.4503L98.9828 18.4991H91.6988ZM90.986 6.85554H90.8058L90.2732 6.33842H90.7238L90.986 5.33755L91.9446 1.75107L92.4772 2.26819L91.2482 6.8472H90.986V6.85554ZM86.709 2.44334L87.2416 2.98548L83.8659 15.0294C83.7676 15.4047 83.6856 15.6132 83.8085 16.0052C83.3825 15.9218 82.8909 15.8217 82.9892 15.4214L86.7172 2.44334H86.709ZM77.1555 18.5074L76.6229 17.9653H84.7098L85.2424 18.5074H77.1637H77.1555ZM78.1141 6.86388L77.6061 6.34676C78.3435 4.97056 80.0232 3.53597 81.539 2.84369L81.1539 3.81955C79.8839 4.46178 78.8023 5.54606 78.1223 6.86388H78.1141ZM70.4778 16.2388L69.8223 16.1804C69.1505 16.1804 69.6584 14.6207 69.8059 14.162L72.6736 4.14483C73.0833 2.66854 73.7962 2.35159 75.23 2.35159L75.7626 2.89374C74.5336 2.89374 73.6569 3.06055 73.2636 4.41173L70.3959 14.4289C70.2566 14.971 70.0108 15.7634 70.4778 16.2388ZM65.3815 18.5074H63.9066L63.3741 17.9653H70.8055L71.3381 18.5074H65.3815ZM57.95 15.363C57.7288 15.4214 57.5403 15.5465 57.5649 15.78C57.3601 15.8217 57.0159 15.7217 56.975 15.4714C56.9094 14.971 57.3601 14.8292 57.9582 14.7458C58.0155 14.7458 58.0811 14.7291 58.1385 14.7291L58.671 15.2879C58.5481 15.2879 58.2204 15.2879 57.9582 15.3713L57.95 15.363ZM57.95 18.5908C57.5649 18.5491 57.2945 18.4908 57.2536 18.4657C57.4584 18.449 57.7042 18.4073 57.95 18.3823C59.0971 18.1988 60.4654 17.7401 60.9816 16.3639L65.3815 4.76204L65.6027 4.1782C65.7666 3.70278 66.6842 2.40998 67.4053 2.51007C66.8727 3.48592 66.504 3.69444 65.8731 5.42929L65.3815 6.73877L61.8419 16.2388C61.0062 18.4908 59.0397 18.6742 57.95 18.5908ZM52.3948 1.43412L52.9274 1.95124L52.149 14.6958C52.149 15.1128 52.0917 16.0469 52.2883 16.4473C51.5099 16.0553 51.4526 15.5715 51.5099 14.5706C51.7312 10.1751 52.0589 5.80462 52.3866 1.42578L52.3948 1.43412ZM46.6676 18.5158L46.135 17.9736H52.3375L52.8701 18.5158H46.6676ZM45.8073 11.0759L45.0945 10.8674L46.979 7.97319L46.8151 9.53289L45.8155 11.0759H45.8073ZM42.2431 16.3639C41.4648 15.8468 43.0789 13.7616 43.3493 13.3195H46.5611V13.8367H43.9228C43.5951 14.3538 42.112 16.2138 42.7675 16.8727L42.2431 16.3639ZM38.8265 6.78048L38.2939 6.26336L37.7859 1.76775L38.3185 2.28487L38.8265 6.78048ZM34.6314 3.76116C34.2054 3.51094 33.7301 3.21902 33.2221 3.20234H32.0341L30.9526 7.24755L30.2561 7.20585L31.5261 2.68522C33.2058 2.68522 33.5335 2.64352 34.6396 3.7695L34.6314 3.76116ZM29.6826 11.5346L28.4945 15.9051C28.1504 15.9051 27.8636 15.8051 27.921 15.4047L29.6006 9.38276H29.6826C30.338 9.38276 31.1574 9.71639 31.4442 10.3586C31.2639 10.2335 30.3626 9.89988 30.1332 9.89988L29.6826 11.5263V11.5346ZM29.6826 18.5158C29.4204 18.5325 29.1336 18.5325 28.8468 18.5325L22.3986 18.5158L21.825 17.9987H22.3986L28.7403 17.982C29.0435 17.982 29.3712 17.9569 29.6826 17.9403C33.2631 17.69 36.6388 15.9385 36.6388 11.6681C36.7781 12.0434 36.9829 12.6857 37.1058 13.2278C36.7617 15.3964 35.1804 18.2489 29.6744 18.5158H29.6826ZM6.97031 16.9728C9.71512 16.9728 13.1318 18.7243 15.893 18.741C17.4252 18.7577 19.58 18.0153 21.1122 17.5733C20.2519 18.4657 17.7365 19.5083 15.7701 19.4916C13.0253 19.4916 8.97771 17.5733 6.25748 17.5983C4.33202 17.5983 3.66015 18.0153 2.16895 18.6993C3.37338 17.4065 5.25788 16.9728 6.9785 16.9728H6.97031ZM22.3904 6.23C21.4727 6.56362 20.424 6.78882 19.5063 6.78882C16.7451 6.78882 12.7303 4.85379 9.96912 4.87047C8.06823 4.87047 7.38818 5.30418 5.88058 5.99646C7.12599 4.66195 9.01048 4.26994 10.7065 4.26994C13.4677 4.26994 16.868 6.02148 19.6292 6.03816C20.4485 6.03816 21.4318 5.82964 22.3904 5.56274C23.2671 5.33755 24.111 5.0623 24.8484 4.83711C24.3814 5.31252 23.4555 5.83798 22.3904 6.23ZM22.3904 11.6848C21.2679 12.4354 19.2605 13.1611 17.6464 13.1444C14.8852 13.1444 10.8294 11.226 8.1092 11.2511C6.18374 11.2511 5.51188 11.6681 4.02067 12.352C5.2251 11.0592 7.13418 10.6255 8.83023 10.6255C11.5914 10.6255 14.9917 12.3771 17.7693 12.3937C19.0966 12.4104 20.9402 11.8349 22.3904 11.3929C22.5952 11.3345 22.8001 11.2677 22.9803 11.226C22.8165 11.3678 22.6362 11.5346 22.3904 11.6848Z" fill="black"/>
</g>
<defs>
<clipPath id="clip0_193_13649">
<rect width="144" height="19" fill="white" transform="translate(0.333984 0.5)"/>
</clipPath>
</defs>
</svg>
