<svg width="108" height="22" viewBox="0 0 108 22" fill="none" xmlns="http://www.w3.org/2000/svg">
<g clip-path="url(#clip0_193_13634)">
<mask id="mask0_193_13634" style="mask-type:luminance" maskUnits="userSpaceOnUse" x="0" y="0" width="108" height="22">
<path d="M107.333 0.5H0V21.5H107.333V0.5Z" fill="white"/>
</mask>
<g mask="url(#mask0_193_13634)">
<path d="M57.3037 17.978V4.02222H65.6399V7.26363H60.7797V17.978H57.3037Z" fill="black"/>
<path d="M76.1282 17.978V12.5122H70.9643V17.978H67.4883V4.02222H70.9643V9.2304H76.1282V4.02222H79.6042V17.978H76.1282Z" fill="black"/>
<path d="M99.7757 17.978V7.26363H95.7158V4.02222H107.333V7.26363H103.253V17.978H99.7757Z" fill="black"/>
<path d="M90.6009 17.9761V10.0244L85.0677 17.9761H82.1611V4.02417H85.6371V11.8931L91.0776 4.02417H94.0787V17.9761H90.6009Z" fill="black"/>
<path d="M37.3282 17.978V9.68413L33.8576 14.0657L30.3871 9.68413V17.978H26.9111V4.02222H30.3417L33.8576 8.82089L37.3737 4.02222H40.8041V17.978H37.3282Z" fill="black"/>
<path d="M47.403 13.0696H50.6334L49.0182 8.69388L47.403 13.0696ZM52.4451 17.976L51.7176 16.0207H46.3135L45.5859 17.976H42.0918L47.4376 4.02209H50.6517L55.9993 17.976H52.4451Z" fill="black"/>
<path d="M-0.00292969 6.85787C0.000435937 5.17242 0.635512 3.55705 1.76325 2.36543C2.89098 1.17381 4.41948 0.503048 6.01409 0.5H19.9053V3.7318H6.01774C5.23419 3.73534 4.48368 4.06577 3.92946 4.6512C3.37524 5.23663 3.06216 6.0297 3.05833 6.85787L3.04014 12.2833C2.97674 12.9784 2.69731 13.6317 2.24549 14.1414C1.79368 14.6509 1.19493 14.9879 0.54275 15.0999L-0.00292969 15.1883V6.85787Z" fill="black"/>
<path d="M-0.00292969 21.5V18.2681H13.8882C14.672 18.2641 15.4225 17.9332 15.9767 17.3475C16.5308 16.7617 16.8438 15.9685 16.8477 15.1402V9.99154C16.8515 9.24458 17.1064 8.52338 17.5669 7.95673C18.0274 7.39009 18.6634 7.01489 19.3614 6.89817L19.9071 6.81165V15.1402C19.9037 16.8258 19.2687 18.4414 18.141 19.6333C17.0133 20.8252 15.4849 21.4963 13.8901 21.5H-0.00292969Z" fill="black"/>
<path d="M11.7648 15.1998V11.0221L9.95315 13.308L8.14332 11.0221V15.1998H5.74414V6.979H8.01599L9.95315 9.62251L11.8903 6.979H14.1622V15.1998H11.7648Z" fill="black"/>
</g>
</g>
<defs>
<clipPath id="clip0_193_13634">
<rect width="107.333" height="21" fill="white" transform="translate(0 0.5)"/>
</clipPath>
</defs>
</svg>
