<svg width="130" height="50" viewBox="0 0 130 50" fill="none" xmlns="http://www.w3.org/2000/svg">
<path d="M102.537 31.8391L107.059 36.9792H104.122L100.624 33.0172V36.9792H98.1888V27.3943H100.624V30.8729L104.063 27.3943H106.943L102.536 31.8391H102.537ZM29.6753 29.9836C31.4527 29.9836 32.2646 29.1333 32.2646 27.8579C32.2646 26.5824 31.4527 25.7322 29.6753 25.7322H26.1583V29.9836H29.6753ZM29.7528 23.4521C32.8063 23.4521 34.8161 25.017 34.8161 27.8579C34.8161 30.6988 32.8063 32.2643 29.7528 32.2643H26.1583V36.9792H23.6074V23.4521H29.7528ZM40.5734 34.9694C42.0031 34.9694 43.3368 33.9456 43.3368 32.1868C43.3368 30.4279 42.0031 29.4041 40.5734 29.4041C39.1437 29.4041 37.81 30.4286 37.81 32.1868C37.81 33.945 39.1437 34.9694 40.5734 34.9694ZM40.5734 27.1235C43.2017 27.1235 45.8102 28.824 45.8102 32.1868C45.8102 35.5495 43.2017 37.2494 40.5734 37.2494C37.9451 37.2494 35.3366 35.5495 35.3366 32.1868C35.3366 28.824 37.9451 27.1235 40.5734 27.1235ZM52.0271 34.9694C50.5583 34.9694 49.4762 33.9065 49.4762 32.1868C49.4762 30.467 50.5967 29.4041 52.0271 29.4041C52.8966 29.4041 53.6502 29.8101 54.2495 30.718L56.3368 29.52C55.6408 28.032 54.1336 27.1241 52.0469 27.1241C49.3219 27.1241 47.0035 29.134 47.0035 32.1868C47.0035 35.2396 49.2067 37.2501 52.0469 37.2501C54.0952 37.2501 55.4673 36.3223 56.4335 34.68L54.4236 33.5788C53.8435 34.3906 53.2257 34.9701 52.0277 34.9701M77.9535 32.8251C77.8376 34.2939 77.5469 34.6224 77.0449 34.6224C76.7019 34.6224 76.5403 34.5847 76.3052 34.5231L76.3171 37.0031C76.3171 37.0031 76.6198 37.0958 77.18 37.0958C79.2474 37.0958 80.0209 35.7621 80.2143 32.9218L80.4461 29.5783H83.1896V36.9607H85.6246V27.395H78.3588L77.9528 32.8251H77.9535ZM73.4623 30.912C73.2305 29.7141 72.3227 28.9797 70.9697 28.9797C69.6943 28.9797 68.7281 29.8299 68.3798 30.912H73.4623ZM71.0466 27.1248C73.7908 27.1248 75.7231 29.1154 75.7231 31.9173V32.7675H68.3408C68.495 34.2363 69.5387 35.1634 70.9691 35.1634C72.2637 35.1634 72.8047 34.6032 73.404 33.8496L75.3364 34.8158C74.3702 36.4581 73.0365 37.2507 70.93 37.2507C68.2633 37.2507 66.0025 35.2217 66.0025 32.1874C66.0025 29.1532 68.2639 27.1248 71.0459 27.1248M94.4466 30.912C94.2148 29.7141 93.3063 28.9797 91.954 28.9797C90.6786 28.9797 89.7124 29.8299 89.3641 30.912H94.4466ZM92.0309 27.1248C94.7751 27.1248 96.7074 29.1154 96.7074 31.9173V32.7675H89.325C89.4793 34.2363 90.523 35.1634 91.9534 35.1634C93.248 35.1634 93.789 34.6032 94.3883 33.8496L96.3207 34.8158C95.3545 36.4581 94.0208 37.2507 91.9143 37.2507C89.2476 37.2507 86.9868 35.2217 86.9868 32.1874C86.9868 29.1532 89.2476 27.1248 92.0302 27.1248M57.1897 29.5207H60.0498V36.9799H62.4848V29.5207H65.3449V27.395H57.1897V29.5207ZM111.893 34.9701C113.322 34.9701 114.656 33.9463 114.656 32.1874C114.656 30.4286 113.322 29.4048 111.893 29.4048C110.463 29.4048 109.129 30.4293 109.129 32.1874C109.129 33.9456 110.463 34.9701 111.893 34.9701ZM111.893 27.1241C114.521 27.1241 117.129 28.8247 117.129 32.1874C117.129 35.5502 114.521 37.2507 111.893 37.2507C109.264 37.2507 106.656 35.5502 106.656 32.1874C106.656 28.8247 109.264 27.1241 111.893 27.1241ZM126.818 27.393L124.175 34.1059L121.533 27.393H118.35V36.9607H120.664V30.9034L123.23 36.9607H125.12L127.685 30.9034V36.9607H130V27.393H126.817H126.818Z" fill="black"/>
<path d="M0.678274 39.7335C0.677736 39.3248 0.832079 38.9307 1.11074 38.6294L2.02724 37.7225C2.46333 37.2848 2.93198 36.8166 3.6223 36.1358C4.39767 35.3698 5.44988 34.3338 7.04223 32.7651L7.04675 32.7606L8.59838 31.2295L8.63005 31.199C11.2068 28.6588 14.8728 25.0395 20.256 19.7251L8.43463 8L1.73954 14.6429C-0.259039 16.6252 0.0123836 17.9231 0.0123836 20.587V38.8123C0.0123622 39.3231 0.170048 39.8217 0.46425 40.2409C0.758451 40.6603 1.17507 40.9802 1.65811 41.1579C1.36947 41.0454 1.12166 40.8493 0.946909 40.5953C0.772156 40.3413 0.678553 40.041 0.678274 39.7335Z" fill="black"/>
<path d="M1.65862 41.1578C1.67852 41.1659 1.69843 41.1748 1.71924 41.182C1.74005 41.1892 1.75814 41.1937 1.78528 41.2C2.02636 41.2748 2.27728 41.3137 2.52989 41.3157H15.6568L7.04817 32.7587L7.04365 32.7632C5.4513 34.3319 4.39908 35.3643 3.62372 36.1339C2.93521 36.8147 2.46475 37.2829 2.02866 37.7206L1.11216 38.6275C0.833496 38.9288 0.679151 39.3228 0.679689 39.7316C0.679534 40.0393 0.772834 40.3399 0.947439 40.5942C1.12205 40.8486 1.36986 41.045 1.65862 41.1578Z" fill="#DBDBDB"/>
</svg>
