<svg width="73" height="30" viewBox="0 0 73 30" fill="none" xmlns="http://www.w3.org/2000/svg">
<path d="M1.02832 11.136V15.0249L11.4428 13.8709V9.66172L1.02832 11.136ZM4.35177 15.2614V28.5875H8.16464V14.8689L4.35177 15.2614ZM12.8494 9.46266V28.5875H16.8671V8.89364L12.8494 9.46266ZM17.6156 8.78758V13.1871L23.4171 12.5441V7.96646L17.6156 8.78758ZM17.6156 16.4616V20.9413L21.4239 20.7321V16.1314L17.6156 16.4616ZM17.6156 24.1702V28.5875H23.4171V23.9939L17.6156 24.1702ZM38.4206 5.83559V28.5875H43.6875V5.08987L38.4206 5.83559ZM44.671 4.95047V10.1839L52.3465 9.33381V3.86359L44.671 4.95047ZM44.671 14.1199V19.4503L49.7018 19.1735V13.6859L44.671 14.1199ZM44.671 23.3464V28.5875H52.3465V23.113L44.671 23.3464ZM24.9522 7.74876V28.5875H29.5288V7.10061L24.9522 7.74876ZM30.383 23.7822V28.5873H37.0262V23.5803L30.383 23.7822ZM69.5545 3.60632C67.8899 2.02209 65.4493 1.37228 62.7797 1.7586V7.56316C63.8608 7.50267 64.7368 7.90681 65.127 8.72047C65.7433 10.0033 65.1075 11.9281 63.6076 13.7114C61.2926 16.4633 55.1365 22.0959 55.1365 22.0959L63.9739 21.8032C69.3736 16.4892 71.3127 13.2635 71.6606 9.2377C71.8435 7.10786 71.076 5.05569 69.5545 3.60632ZM71.972 28.5875V22.5139L54.0473 23.0579M54.0473 23.0579L54.0491 28.5873H71.972M61.7493 1.88889C56.542 3.00601 53.985 6.86509 54.2801 13.162L59.8322 12.6657C59.5793 9.10824 60.6594 8.26434 61.752 7.80034L61.7493 1.88889Z" fill="black"/>
</svg>
