<svg width="99" height="26" viewBox="0 0 99 26" fill="none" xmlns="http://www.w3.org/2000/svg">
<path d="M31.9308 15.3809C31.9903 15.2607 32.0904 15.0633 32.1298 14.9634L34.555 9.09245L36.9398 15.0229C36.9797 15.1228 37.0584 15.281 37.118 15.4202L36.8212 15.4796C36.1449 15.6581 35.3899 15.777 34.6146 15.777C33.8393 15.777 33.1237 15.6783 32.3681 15.4796C32.2287 15.4398 32.0309 15.3809 31.9308 15.3809ZM7.2674 6.43386C9.97037 6.43386 11.879 6.98938 13.0714 8.04092C14.5016 9.28992 15.2172 10.9374 15.2172 13C15.2172 14.9634 14.5212 16.5912 13.1501 17.8604C11.9577 18.9911 10.0103 19.5859 7.2674 19.5859H6.39321V6.43386H7.2674ZM90.7386 8.12061C92.0913 9.42971 92.7468 11.076 92.7468 13C92.7468 14.9045 92.0705 16.5305 90.7386 17.8801C89.4074 19.2088 87.798 19.8832 85.9102 19.8832C82.1138 19.8832 79.0931 16.7691 79.0931 13C79.0931 11.0962 79.7683 9.44931 81.1001 8.1004C82.4117 6.7717 84.0421 6.11626 85.9102 6.11626C87.7783 6.11626 89.3878 6.79134 90.7386 8.12061ZM58.7226 9.27031L61.127 7.20706C59.0598 4.45036 56.2974 3.08179 53.0384 3.08179C47.4925 3.08179 43.0209 7.50506 43.0209 13.0399C43.0209 18.4558 47.4728 22.9183 52.8984 22.9183C54.2695 22.9183 55.5811 22.6203 56.8533 22.0452C58.0862 21.4897 59.1588 20.7159 60.0342 19.7048C60.8684 18.7728 61.4053 17.7017 61.7229 16.5305C61.9816 15.5593 62.1407 14.3686 62.0602 12.94L62.0209 12.3648H53.356V15.4005H58.6821C58.5432 16.5912 57.9265 17.6225 56.8533 18.4754C55.6812 19.427 54.3488 19.8832 52.859 19.8832C51.1298 19.8832 49.5792 19.1695 48.1491 17.7611C46.8572 16.4515 46.2006 14.8849 46.2006 13.0595C46.2006 11.1355 46.8769 9.46896 48.2677 8.08078C49.5792 6.75147 51.1691 6.11626 52.9973 6.11626C55.3427 6.11626 57.1912 7.18746 58.7226 9.27031ZM38.3503 18.4154L40.1195 22.6203H43.6179L35.4096 3.33992H33.8197L25.3926 22.6203H28.8708L30.7192 18.3362C30.7586 18.2173 30.7783 18.1376 30.7985 18.0585C30.8772 18.0983 30.9976 18.1376 31.1358 18.1977C32.1691 18.5944 33.402 18.8121 34.6146 18.8121C35.8064 18.8121 36.9798 18.5741 37.6758 18.3362C38.0327 18.2173 38.1512 18.1584 38.2513 18.0983C38.2716 18.178 38.3306 18.3565 38.3503 18.4154ZM7.16789 22.6203C10.7057 22.6203 13.4283 21.8275 15.2571 20.1806C17.3433 18.316 18.3968 15.9358 18.3968 13.0197C18.3968 9.9846 17.3237 7.5455 15.1778 5.72015C13.3693 4.17258 10.686 3.39882 7.20784 3.39882H3.09375V22.6203H7.16789ZM24.1406 3.39882H20.9812V22.6203H24.1406V3.39882ZM67.2874 13.6543H74.0251V10.6395H67.2874V6.43386H74.621V3.39882H64.1273V22.6203H74.6406V19.5859H67.2874V13.6543ZM78.8548 5.99794C76.8865 7.92197 75.9141 10.282 75.9141 13.0197C75.9141 18.5545 80.3851 22.9183 85.9102 22.9183C91.455 22.9183 95.9063 18.5741 95.9063 13.0197C95.9063 10.3022 94.9122 7.98087 92.9851 6.01754C91.0366 4.05364 88.6721 3.08179 85.9102 3.08179C83.1667 3.08179 80.8022 4.05364 78.8548 5.99794Z" fill="black"/>
</svg>
