<svg width="105" height="26" viewBox="0 0 105 26" fill="none" xmlns="http://www.w3.org/2000/svg">
<path d="M41.6553 24.7323H46.0696V6.92883H41.6553V24.7323Z" fill="black"/>
<path d="M96.9743 25.1524C92.0383 25.1524 89.0687 22.6119 88.9082 19.0312H93.5633C93.5633 20.1514 94.2656 21.7917 97.2753 21.8517C99.2818 21.8517 100.225 20.6715 100.225 19.7913C100.104 18.391 98.3387 18.271 96.4526 17.971C94.5665 17.6709 92.9613 17.3308 91.7976 16.7307C90.3127 15.9706 89.3095 14.3302 89.3095 12.4499C89.3095 9.26925 92.0785 6.74878 96.6934 6.74878C101.168 6.74878 103.997 9.08923 104.298 12.5699H99.8035C99.7634 11.6297 99.5828 10.1494 96.9342 10.1494C95.1484 10.1494 93.9646 10.5095 93.8643 11.7498C93.8643 13.5701 97.5763 13.4501 100.466 14.2102C103.235 14.9104 105 16.6307 105 19.0312C105 23.452 101.409 25.1524 96.9743 25.1524Z" fill="black"/>
<path d="M46.0696 0.867659V5.26851H41.6553V0.847656L46.0696 0.867659Z" fill="black"/>
<path fill-rule="evenodd" clip-rule="evenodd" d="M29.7965 25.1524C24.6598 25.1524 20.4863 20.9716 20.4863 15.9106C20.4863 10.7896 24.6598 6.74883 29.7965 6.74883C31.7428 6.74883 33.5085 7.26891 35.0535 8.32912V0.867676H39.4678V24.7323H35.0535V23.5521C33.5085 24.5523 31.7428 25.1524 29.7965 25.1524ZM24.72 15.9106C24.72 18.6711 27.0877 20.9716 29.9169 20.9716C32.6858 20.9716 35.0535 18.6711 35.0535 15.9106C35.0535 13.1501 32.6858 10.7896 29.9169 10.7896C27.0877 10.7896 24.72 13.1501 24.72 15.9106Z" fill="black"/>
<path fill-rule="evenodd" clip-rule="evenodd" d="M62.4226 0.867676H66.7767V24.7323H62.4226V23.5521C60.9378 24.5523 59.1119 25.1524 57.1054 25.1524C52.029 25.1524 47.8555 20.9716 47.8555 15.9106C47.8555 10.7896 52.029 6.74883 57.1054 6.74883C59.1119 6.74883 60.8776 7.26891 62.4226 8.32912V0.867676ZM52.1494 15.9106C52.1494 18.6711 54.517 20.9716 57.2258 20.9716C60.055 20.9716 62.4226 18.6711 62.4226 15.9106C62.4226 13.1501 60.055 10.7896 57.2258 10.7896C54.517 10.7896 52.1494 13.1501 52.1494 15.9106Z" fill="black"/>
<path fill-rule="evenodd" clip-rule="evenodd" d="M77.5107 25.1524C72.4543 25.1524 68.2607 20.9715 68.2607 15.9106C68.2607 10.7896 72.4543 6.74878 77.5107 6.74878C79.457 6.74878 81.2829 7.26886 82.7677 8.32908V6.90881H87.182V24.7323H82.7677V23.552C81.2829 24.5522 79.5172 25.1524 77.5107 25.1524ZM72.5546 15.9106C72.5546 18.6711 74.9223 20.9715 77.6913 20.9715C80.4602 20.9715 82.7677 18.6711 82.7677 15.9106C82.7677 13.15 80.4602 10.7896 77.6913 10.7896C74.9223 10.7896 72.5546 13.15 72.5546 15.9106Z" fill="black"/>
<path fill-rule="evenodd" clip-rule="evenodd" d="M4.25377 15.9106C4.25377 18.6711 6.62144 20.9715 9.39041 20.9715C12.2196 20.9715 14.5872 18.6711 14.5872 15.9106C14.5872 13.15 12.2196 10.7896 9.39041 10.7896C6.62144 10.7896 4.25377 13.15 4.25377 15.9106ZM9.27001 25.1524C4.19358 25.1524 0 20.9715 0 15.9106C0 10.7896 4.19358 6.74878 9.27001 6.74878C11.2163 6.74878 13.0422 7.26886 14.5872 8.32908V6.90881H18.9413V24.7323H14.5872V23.552C13.1024 24.5522 11.2765 25.1524 9.27001 25.1524Z" fill="black"/>
</svg>
