<svg width="101" height="40" viewBox="0 0 101 40" fill="none" xmlns="http://www.w3.org/2000/svg">
<g clip-path="url(#clip0_193_13652)">
<path d="M0.333984 22.1807C2.0579 26.2353 6.07065 29.0796 10.7472 29.0796C9.02328 25.0232 5.01052 22.1807 0.333984 22.1807Z" fill="black"/>
<path d="M10.748 29.0795C14.1834 29.0795 17.1414 27.0332 18.4761 24.0916C15.0415 24.0916 12.0836 26.1379 10.748 29.0795Z" fill="black"/>
<path fill-rule="evenodd" clip-rule="evenodd" d="M10.7481 23.4094C15.4343 23.4094 19.2334 19.6025 19.2334 14.9047C19.2334 10.2087 15.4343 6.40002 10.7481 6.40002C6.06095 6.40002 2.2627 10.2087 2.2627 14.9047C2.2627 19.6025 6.06095 23.4094 10.7481 23.4094ZM10.7481 19.1576C13.0908 19.1576 14.9903 17.2537 14.9903 14.9048C14.9903 12.5559 13.0908 10.6529 10.7481 10.6529C8.40446 10.6529 6.50492 12.5559 6.50492 14.9048C6.50492 17.2537 8.40446 19.1576 10.7481 19.1576Z" fill="black"/>
<path d="M65.342 14.9048H68.8913V28.6939H65.342V23.3237H59.1446V28.6939H55.5952V14.9048H59.1446V19.9866H65.342V14.9048ZM70.5631 18.3252H74.982V28.6939H78.5313V18.3252H82.8966V14.9048H70.5631V18.3252ZM100.107 25.6947V28.6257C99.5021 28.9292 98.7462 29.0804 97.8634 29.0804C96.0196 29.0804 95.0913 28.2763 94.7193 26.9811L94.6603 27.0678C93.5867 28.4188 92.1013 29.0804 90.1753 29.0804C88.3307 29.0804 86.7622 28.3913 85.442 26.9846C84.149 25.578 83.4889 23.8404 83.4889 21.7994C83.4889 19.7601 84.149 18.05 85.442 16.6433C86.7622 15.2375 88.3307 14.5192 90.1753 14.5192C92.0159 14.5192 93.4542 15.126 94.515 16.362V14.9057H98.0645V24.6596C98.0645 25.493 98.4429 25.9221 99.1996 25.9221C99.5532 25.9212 99.8557 25.846 100.107 25.6947ZM94.6603 21.7984C94.6603 20.6696 94.3027 19.7318 93.5596 19.0143C92.8444 18.2703 91.9361 17.9111 90.8354 17.9111C89.7347 17.9111 88.8271 18.2694 88.1112 19.0143C87.396 19.7318 87.0384 20.6696 87.0384 21.7984C87.0384 22.93 87.396 23.8678 88.1112 24.6128C88.8271 25.3293 89.7347 25.6876 90.8354 25.6876C91.9361 25.6876 92.8444 25.3293 93.5596 24.6128C94.3027 23.8678 94.6603 22.93 94.6603 21.7984ZM26.3541 14.9048L26.2482 20.0857C26.2234 22.1833 26.1475 23.2193 25.8448 24.4057C25.5676 25.5434 25.038 25.8646 24.2074 25.8646C23.9293 25.8646 23.6777 25.8389 23.4756 25.7628V28.6939C23.7527 28.8452 24.2073 28.9204 24.812 28.9204C27.3074 28.8452 28.5176 27.6649 29.1231 25.5425C29.5512 24.0262 29.6271 22.8636 29.703 21.1208L29.7825 18.3242H34.1898V28.693H37.7391V14.904H26.3541V14.9048ZM43.4484 22.7301C43.8306 25.0834 45.6922 25.854 47.5812 25.854C48.8328 25.854 50.1446 25.3638 50.9514 24.6304L53.1404 26.8378C51.8331 28.2887 50.013 29.0804 47.5256 29.0804C44.0433 29.0804 39.8425 27.02 39.8425 21.7994C39.8425 16.5796 43.888 14.5192 47.3235 14.5192C51.6689 14.5192 53.467 16.5655 53.467 18.8595C53.4679 22.6098 48.7119 24.342 43.4484 22.7301ZM49.614 19.2656C49.614 18.196 48.5583 17.7182 47.3755 17.7182C45.5687 17.7182 44.0028 18.4826 43.527 20.4502C47.2087 21.5163 49.614 20.7209 49.614 19.2656Z" fill="black"/>
</g>
<defs>
<clipPath id="clip0_193_13652">
<rect width="100.571" height="40" fill="white" transform="translate(0.333984)"/>
</clipPath>
</defs>
</svg>
