<svg width="130" height="50" viewBox="0 0 130 50" fill="none" xmlns="http://www.w3.org/2000/svg">
<g clip-path="url(#clip0_193_13629)">
<path d="M1.01782 47.6196C1.01702 47.0063 1.24863 46.4148 1.66679 45.9627L3.0421 44.6019C3.69649 43.9451 4.39976 43.2425 5.43566 42.2209C6.59918 41.0714 8.17814 39.5168 10.5676 37.1627L10.5744 37.1559L12.9028 34.8583L12.9503 34.8126C16.817 31.0007 22.3182 25.5697 30.3963 17.5947L12.6571 0L2.61036 9.96837C-0.388716 12.943 0.0185829 14.8906 0.0185829 18.8882V46.2373C0.0185508 47.0037 0.255176 47.7519 0.696657 48.381C1.13814 49.0103 1.76332 49.4904 2.48817 49.757C2.05504 49.5883 1.68317 49.294 1.42094 48.9128C1.1587 48.5317 1.01824 48.081 1.01782 47.6196Z" fill="black"/>
<path d="M2.48853 49.757C2.5184 49.7691 2.54826 49.7826 2.57949 49.7933C2.61072 49.8041 2.63787 49.8108 2.6786 49.8203C3.04036 49.9325 3.4169 49.9909 3.79596 49.9939H23.4943L10.5761 37.1532L10.5693 37.1599C8.17985 39.5141 6.60089 41.0633 5.43737 42.2181C4.40419 43.2397 3.69821 43.9424 3.04381 44.5992L1.6685 45.96C1.25034 46.4121 1.01873 47.0034 1.01953 47.6169C1.0193 48.0786 1.15931 48.5296 1.42132 48.9113C1.68334 49.293 2.05521 49.5878 2.48853 49.757Z" fill="#DBDBDB"/>
<path d="M129.968 41.7135V34.8934C129.968 32.9659 128.838 31.6886 126.795 31.6886C125.585 31.6886 124.376 32.2189 123.661 33.3589C123.245 32.3171 122.372 31.6886 120.924 31.6886C120.353 31.6875 119.791 31.8314 119.292 32.1065C118.793 32.3817 118.374 32.7791 118.073 33.2607V31.9631H115.57V41.7135H118.068V36.2501C118.068 34.6767 118.961 33.8516 119.933 33.8516C121.019 33.8516 121.519 34.5394 121.519 35.7184V41.7135H124.019V36.2891C124.019 34.674 124.811 33.8516 125.919 33.8516C127.027 33.8516 127.467 34.5394 127.467 35.6794V41.7135H129.968ZM108.95 39.6716C107.482 39.6716 106.114 38.6285 106.114 36.845C106.114 35.0616 107.482 34.0185 108.95 34.0185C110.417 34.0185 111.786 35.0616 111.786 36.845C111.786 38.6285 110.417 39.6716 108.95 39.6716ZM114.325 36.845C114.325 33.4235 111.647 31.694 108.95 31.694C106.252 31.694 103.575 33.4235 103.575 36.845C103.575 40.2665 106.252 41.9961 108.95 41.9961C111.647 41.9961 114.325 40.2665 114.325 36.845ZM102.722 39.3809L100.66 38.261C100.065 39.0861 99.4299 39.677 98.2012 39.677C96.6928 39.677 95.5822 38.6002 95.5822 36.8504C95.5822 35.1006 96.7335 34.0239 98.2012 34.0239C99.0932 34.0239 99.867 34.4371 100.481 35.3618L102.623 34.1423C101.909 32.6281 100.363 31.7047 98.2202 31.7047C95.4234 31.7047 93.0434 33.7493 93.0434 36.8558C93.0434 39.9623 95.3053 42.0069 98.2202 42.0069C100.323 42.0069 101.731 41.0647 102.722 39.3916V39.3809ZM86.9353 33.5756C88.3242 33.5756 89.2555 34.3227 89.4945 35.5421H84.2783C84.6354 34.4411 85.6265 33.5756 86.9353 33.5756ZM84.239 37.4292H91.8147V36.5637C91.8147 33.7129 89.8312 31.6886 87.0154 31.6886C84.1643 31.6886 81.8386 33.752 81.8386 36.8397C81.8386 39.9273 84.1589 41.9907 86.8959 41.9907C89.0573 41.9907 90.4258 41.1831 91.4183 39.5141L89.4347 38.5302C88.8197 39.2974 88.2644 39.8681 86.9353 39.8681C85.4677 39.8681 84.3965 38.9259 84.239 37.4292ZM77.7996 41.7363H80.299V27.9683H77.7996V41.7363ZM71.5081 33.5958C72.897 33.5958 73.8284 34.3428 74.0673 35.5623H68.8526C69.2096 34.4613 70.2007 33.5958 71.5095 33.5958H71.5081ZM68.8118 37.4453H76.3876V36.5799C76.3876 33.7291 74.404 31.7047 71.5883 31.7047C68.7372 31.7047 66.4115 33.7695 66.4115 36.8558C66.4115 39.9422 68.7317 42.0069 71.4688 42.0069C73.6302 42.0069 74.9987 41.1993 75.9912 39.5303L74.0117 38.5464C73.3967 39.3136 72.8414 39.8843 71.5122 39.8843C70.0446 39.8843 68.9734 38.9421 68.8159 37.4453H68.8118ZM59.3489 31.9793V33.9848H60.8695V38.9004C60.8695 41.2989 62.3181 42.0069 64.0233 42.0069C64.5895 42.0057 65.152 41.9147 65.6892 41.7377L65.4584 39.6945C65.1881 39.775 64.9071 39.8144 64.6248 39.8116C63.8713 39.8116 63.3757 39.4388 63.3757 38.436V33.9942H65.5168V31.9887H63.369V29.3452H60.8695V31.9793H59.3489ZM53.1037 34.4573C53.1037 33.9256 53.6983 33.6308 54.5116 33.6308C55.4619 33.6308 56.119 34.044 56.5942 34.752L58.2234 33.6308C57.5296 32.4316 56.4584 31.7047 54.4749 31.7047C52.5511 31.7047 50.8852 32.7075 50.8852 34.5313C50.8852 36.3013 52.3135 37.2058 54.2373 37.5786C55.6452 37.8545 56.2996 38.2287 56.2996 38.8371C56.2996 39.5855 55.6058 39.9139 54.7532 39.9139C53.6019 39.9139 52.9082 39.2409 52.4316 38.4777L50.4291 39.7362C51.1079 40.9557 52.3922 41.9975 54.7125 41.9975C57.1563 41.9975 58.6008 40.5828 58.6008 38.7536C58.6008 37.121 57.6505 36.2178 55.3424 35.7454C53.7947 35.4304 53.1009 35.0724 53.1009 34.4478L53.1037 34.4573ZM44.3467 39.6945C42.8791 39.6945 41.5106 38.6514 41.5106 36.8679C41.5106 35.0845 42.8791 34.0413 44.3467 34.0413C45.8144 34.0413 47.1829 35.0845 47.1829 36.8679C47.1829 38.6514 45.8144 39.6945 44.3467 39.6945ZM49.7217 36.8679C49.7217 33.4464 47.0444 31.7168 44.3467 31.7168C41.649 31.7168 38.9731 33.4464 38.9731 36.8679C38.9731 40.2894 41.6504 42.019 44.3467 42.019C47.043 42.019 49.7217 40.2894 49.7217 36.8679ZM30.2664 33.8798V30.2497H33.5777C35.1839 30.2497 35.898 30.9577 35.898 32.0587C35.898 33.1597 35.1839 33.8677 33.5777 33.8677L30.2664 33.8798ZM32.4875 36.1599L35.6998 41.7444H38.6948L35.3427 35.9123C37.2271 35.2393 38.5169 33.9848 38.5169 31.8622C38.5169 29.4825 36.6325 27.9683 33.5777 27.9683H27.6475V41.7323H30.2664V36.1478L32.4875 36.1599Z" fill="black"/>
</g>
<defs>
<clipPath id="clip0_193_13629">
<rect width="130" height="50" fill="white"/>
</clipPath>
</defs>
</svg>
