<svg width="91" height="30" viewBox="0 0 91 30" fill="none" xmlns="http://www.w3.org/2000/svg">
<path d="M10.7745 0.25023L12.3018 4.86562C10.6912 3.58665 9.08056 2.86376 7.33109 2.86376C5.02624 2.86376 3.44339 4.28174 3.44339 6.50602C3.44339 8.7303 5.02624 10.1483 7.71986 10.1483C9.35825 10.1483 10.8578 9.62002 12.524 7.53476C12.2463 11.2604 10.1636 13.012 6.91455 13.012C2.88801 13.012 0 10.2873 0 6.50602C0 2.72474 3.11016 0 7.19225 0C8.38633 0 9.35825 0.25023 10.7745 0.25023ZM27.9081 12.7618C27.2417 12.2057 26.7974 11.6219 26.5475 10.9824L22.6597 1.86284C22.2987 1.05654 22.4931 0.583874 22.632 0.278035H17.3003C17.4391 0.583874 17.6335 1.05654 17.2725 1.86284L13.4126 10.9824C13.1349 11.6219 12.7183 12.2057 12.0519 12.7618H16.8004C16.5783 12.0945 16.495 11.6219 16.7727 10.9824L17.217 9.89806H22.6042L23.0485 10.9824C23.2984 11.5941 23.2151 12.0667 22.993 12.7618H27.9081ZM18.3 7.14551L19.8828 3.33642L21.4657 7.14551H18.3ZM43.4312 2.02965C43.4312 1.41798 43.7089 0.945318 44.2365 0.25023H40.2099L36.1834 6.50602L32.1568 0.25023H28.1303C28.6579 0.973122 28.9356 1.41798 28.9356 2.02965V10.9546C28.9356 11.5663 28.6579 12.0389 28.1303 12.734H32.9344C32.4068 12.0111 32.1291 11.5663 32.1291 10.9546V5.69972L36.1556 12.1223L40.1822 5.69972V10.9546C40.1822 11.5663 39.9045 12.0389 39.3769 12.734H44.181C43.6533 12.0111 43.3756 11.5663 43.3756 10.9546V2.02965H43.4312ZM58.0101 4.25394C58.0101 2.02965 56.2328 0.25023 53.1227 0.25023H46.0415C46.5691 0.973122 46.8468 1.41798 46.8468 2.02965V10.9546C46.8468 11.5663 46.5691 12.0389 46.0415 12.734H50.8456C50.318 12.0111 50.0403 11.5663 50.0403 10.9546V8.22984H53.0949C56.2328 8.25765 58.0101 6.47822 58.0101 4.25394ZM54.8999 4.25394C54.8999 5.03243 54.3167 5.50509 53.567 5.50509H50.068V3.00278H53.5947C54.3167 3.00278 54.8999 3.50324 54.8999 4.25394ZM72.2835 12.7618C71.617 12.2057 71.1727 11.6219 70.9228 10.9824L67.0351 1.86284C66.6741 1.05654 66.8685 0.583874 67.0073 0.278035H61.6478C61.7867 0.583874 61.9811 1.05654 61.6201 1.86284L57.7601 10.9824C57.4825 11.6219 57.0659 12.2057 56.3995 12.7618H61.148C60.9258 12.0945 60.8425 11.6219 61.1202 10.9824L61.5645 9.89806H66.9518L67.3961 10.9824C67.646 11.5941 67.5627 12.0667 67.3406 12.7618H72.2835ZM62.6475 7.14551L64.2026 3.33642L65.7855 7.14551H62.6475ZM85.5017 12.7618C85.224 12.595 84.6408 12.2335 83.6134 11.0936L80.7531 7.95181H80.8642C82.7247 7.95181 84.502 6.47822 84.502 4.28174C84.502 2.05746 82.7247 0.278035 79.6146 0.278035H72.5334C73.061 1.00093 73.3387 1.44578 73.3387 2.05746V10.9824C73.3387 11.5941 73.061 12.0667 72.5334 12.7618H77.3375C76.8099 12.0389 76.5322 11.5941 76.5322 10.9824V7.64597L79.5868 10.9268C80.9475 12.4004 81.9194 12.7896 83.5301 12.7896H85.5017M79.92 3.00278C80.8364 3.00278 81.4196 3.53104 81.4196 4.25394C81.4196 4.97683 80.8364 5.58851 79.92 5.58851H76.56V3.03058H79.92V3.00278ZM90.1947 2.02965C90.1947 1.41798 90.4724 0.945318 91 0.25023H86.1959C86.7235 0.973122 87.0012 1.41798 87.0012 2.02965V10.9546C87.0012 11.5663 86.7235 12.0111 86.1959 12.734H91C90.4724 12.0111 90.1947 11.5663 90.1947 10.9546V2.02965ZM26.3253 23.633C26.3253 23.355 26.4364 23.0213 26.6863 22.6043H20.4104L19.1886 25.4958C19.744 25.329 20.1883 25.2734 20.7437 25.2734H23.1041V26.886C22.5209 27.1084 21.91 27.1918 21.2991 27.1918C18.6054 27.1918 16.9948 25.7183 16.9948 23.4662C16.9948 21.2697 18.6054 19.7127 21.188 19.7127C22.7986 19.7127 24.5203 20.3244 26.1309 21.6033L24.6869 17.2104C23.2707 17.2104 22.0766 16.9601 20.7437 16.9601C16.4394 16.9601 13.607 19.6015 13.607 23.4662C13.607 27.3309 16.4394 29.9722 20.3827 29.9722C22.7986 29.9722 23.6039 28.7488 25.3534 29.5551L26.3253 29.9722V23.633ZM41.293 29.722C41.0153 29.5551 40.4321 29.1937 39.4046 28.0538L36.5444 24.912H36.6555C38.516 24.912 40.2932 23.4384 40.2932 21.2419C40.2932 19.0176 38.516 17.2382 35.4059 17.2382H28.3247C28.8523 17.9611 29.13 18.4059 29.13 19.0176V27.9425C29.13 28.5542 28.8523 29.0269 28.3247 29.722H33.1288C32.6012 28.9991 32.3235 28.5542 32.3235 27.9425V24.6061L35.3781 27.8869C36.7388 29.3605 37.7107 29.7498 39.3213 29.7498H41.293M35.6836 19.9629C36.5999 19.9629 37.1831 20.4912 37.1831 21.2141C37.1831 21.937 36.5999 22.5487 35.6836 22.5487H32.3235V19.9907H35.6836V19.9629ZM41.6262 23.4662C41.6262 27.1918 44.4864 29.9722 48.6796 29.9722C52.845 29.9722 55.733 27.164 55.733 23.4662C55.733 19.7683 52.8727 16.9601 48.6796 16.9601C44.4864 16.9601 41.6262 19.7405 41.6262 23.4662ZM52.3174 23.4662C52.3174 25.5236 50.9567 27.1084 48.6796 27.1084C46.4025 27.1084 45.0418 25.5236 45.0418 23.4662C45.0418 21.4087 46.4025 19.8239 48.6796 19.8239C50.9289 19.8239 52.3174 21.4087 52.3174 23.4662ZM69.2289 18.9898C69.2289 18.3781 69.5066 17.9055 70.0342 17.2104H65.2301C65.7577 17.9333 66.0354 18.3781 66.0354 18.9898V24.3559C66.0354 25.9129 65.0635 27.1084 63.2585 27.1084C61.4812 27.1084 60.4815 25.9129 60.4815 24.3559V18.9898C60.4815 18.3781 60.7592 17.9055 61.2868 17.2104H56.4828C57.0104 17.9333 57.2881 18.3781 57.2881 18.9898V24.1891C57.2881 27.7479 59.6485 30 63.2585 30C66.8685 30 69.2289 27.7757 69.2289 24.1891V18.9898ZM83.2801 21.2141C83.2801 18.9898 81.5029 17.2104 78.3927 17.2104H71.3116C71.8392 17.9333 72.1169 18.3781 72.1169 18.9898V27.9147C72.1169 28.5264 71.8392 28.9991 71.3116 29.6942H76.1156C75.588 28.9713 75.3103 28.5264 75.3103 27.9147V25.19H78.365C81.5029 25.2178 83.2801 23.4384 83.2801 21.2141ZM80.17 21.2141C80.17 21.9926 79.5868 22.4652 78.8371 22.4652H75.3103V19.9629H78.8371C79.5868 19.9629 80.17 20.4634 80.17 21.2141Z" fill="black"/>
</svg>
